<svg width="437" height="443" viewBox="0 0 437 443" fill="none" xmlns="http://www.w3.org/2000/svg">
<path d="M90.4809 188.954C90.4809 188.954 135.597 183.33 203.395 129.413C271.194 75.4964 307.942 -1.12629 315.491 0.0125487C323.04 1.15139 357.758 -11.1979 408.072 132.189C458.387 275.577 430.399 305.151 417.865 303.692C405.331 302.233 322.149 270.416 268.309 271.484C214.469 272.552 143.217 293.834 143.217 293.834L90.4809 188.954Z" fill="#2ED573"/>
<path d="M9.32939 296.005L33.4364 290.88L20.368 259.17L0 269.349L9.32939 296.005Z" fill="#455A64"/>
<path d="M12.1426 258.316L21.0447 285.079L26.5996 298.531C30.2204 307.47 37.1435 314.673 45.934 318.649C54.7244 322.624 64.7083 323.067 73.8164 319.885L171.633 292.375L129.615 168.597L32.4038 209.559C23.2855 213.385 16.0442 220.65 12.2511 229.778C8.45804 238.905 8.41905 249.16 12.1426 258.316Z" fill="#263238"/>
<path d="M64.4656 261.192L69.2178 327.674L84.7902 329.735L144.572 442.492L191.165 403.448C191.165 403.448 147.098 357.405 145.274 333.976C143.451 310.546 156.825 311.094 156.825 311.094L143.683 271.551L64.4656 261.192Z" fill="#263238"/>
<path d="M402.696 134.325C429.295 211.944 437.058 279.598 420.001 285.435C402.945 291.271 367.515 233.119 340.879 155.5C314.244 77.8808 306.517 10.2264 323.574 4.35429C340.63 -1.51786 376.061 56.5987 402.696 134.325Z" fill="#263238"/>
<path d="M335.645 111.192C335.645 111.192 376.31 91.0131 392.44 144.859C408.571 198.705 367.336 203.438 367.336 203.438C352.493 174.329 341.824 143.275 335.645 111.192Z" fill="#FAFAFA"/>
<path d="M300.642 45.5306C300.513 48.8982 300.704 52.2705 301.212 55.6022C301.817 62.0438 302.672 71.4036 304.06 82.9344C305.176 88.6523 306.363 94.8685 307.621 101.583C308.298 104.928 308.974 108.416 309.651 111.975C310.007 113.754 310.363 115.569 310.719 117.42C311.146 119.235 311.716 120.979 312.215 122.901L318.802 146.069L320.512 152.119C321.081 154.183 321.971 156.141 322.684 158.169C324.179 162.226 325.71 166.319 327.277 170.483L331.906 182.797C332.69 184.79 333.33 186.854 334.256 188.776L336.927 194.505L347.218 216.321C348.072 218.029 348.82 219.88 349.71 221.41L352.488 226.215L357.794 235.432L367.337 251.839C373.853 261.448 379.337 269.028 383.111 274.295C384.925 277.138 387 279.807 389.307 282.267C387.849 279.232 386.134 276.326 384.179 273.584L369.295 250.558L360.179 233.973L355.087 224.827C354.197 223.225 353.307 221.624 352.381 220.022C351.455 218.421 350.814 216.642 349.995 214.898C346.791 207.958 343.408 200.662 339.954 193.153L337.283 187.459C336.393 185.537 335.752 183.508 334.969 181.515L330.411 169.308C328.879 165.18 327.348 161.087 325.817 157.066C325.105 155.073 324.215 153.116 323.681 151.087C323.147 149.058 322.506 147.03 321.9 145.037L315.206 122.047C314.707 120.231 314.102 118.488 313.675 116.637C313.247 114.786 312.891 113.078 312.535 111.263C311.787 107.704 311.04 104.145 310.363 100.942C308.939 94.3228 307.586 88.1303 306.375 82.4717C304.773 71.1545 303.419 61.937 302.494 55.3887C302.131 52.0599 301.512 48.7641 300.642 45.5306Z" fill="#263238"/>
<path d="M171.633 292.197C170.225 292.842 168.741 293.309 167.217 293.585L155.11 296.788C144.855 299.421 130.719 303.158 115.122 307.464C99.5256 311.77 85.4603 315.685 75.1694 318.141C70.0062 319.422 65.84 320.383 62.9201 320.988C61.4252 321.368 59.9002 321.618 58.3623 321.735C59.7793 321.097 61.2591 320.608 62.7777 320.276L74.8133 316.717L114.659 305.436C130.22 301.129 144.463 297.571 154.79 295.257C159.953 294.083 164.155 293.193 167.075 292.659C168.576 292.363 170.102 292.208 171.633 292.197Z" fill="#455A64"/>
<path d="M113.983 271.982C110.957 273.683 107.758 275.055 104.44 276.075C98.4218 278.317 90.1963 281.164 80.6888 283.976C71.1814 286.787 62.7066 288.958 56.4751 290.382C53.1397 291.335 49.7152 291.943 46.2555 292.197C49.4676 290.903 52.7778 289.868 56.1547 289.1C62.3149 287.357 70.7897 284.972 80.1547 282.196C89.5197 279.42 97.959 276.751 104.012 274.829C107.255 273.616 110.589 272.664 113.983 271.982Z" fill="#455A64"/>
<path d="M98.5998 243.725C88.7555 247.678 78.6842 251.041 68.4395 253.796C58.3668 257.167 48.106 259.947 37.7094 262.124C47.5671 258.164 57.65 254.79 67.9054 252.017C77.9688 248.665 88.2173 245.896 98.5998 243.725Z" fill="#455A64"/>
<path d="M83.4305 216.499C75.1353 221.133 66.5474 225.222 57.7212 228.742C49.1531 232.865 40.3276 236.431 31.2997 239.418C39.5705 234.751 48.148 230.649 56.9734 227.14C65.5429 223.003 74.3821 219.448 83.4305 216.499Z" fill="#455A64"/>
</svg>
